<?xml version="1.0" standalone="no"?>
<!DOCTYPE svg PUBLIC "-//W3C//DTD SVG 20010904//EN"
 "http://www.w3.org/TR/2001/REC-SVG-20010904/DTD/svg10.dtd">
<svg version="1.0" xmlns="http://www.w3.org/2000/svg"
 width="2007.000000pt" height="2007.000000pt" viewBox="0 0 2007.000000 2007.000000"
 preserveAspectRatio="xMidYMid meet">
<metadata>
Created by potrace 1.14, written by Peter Selinger 2001-2017
</metadata>
<g transform="translate(0.000000,2007.000000) scale(0.100000,-0.100000)"
fill="#000000" stroke="none">
<path d="M12324 17490 c-5 -5 -31 -11 -57 -12 -26 -2 -47 -6 -47 -9 0 -3 -6
-6 -12 -7 -31 -4 -54 -9 -70 -16 -9 -4 -25 -9 -35 -11 -10 -2 -20 -4 -23 -5
-3 -1 -8 -2 -12 -1 -5 0 -8 -3 -8 -9 0 -5 -3 -9 -7 -8 -5 1 -21 -4 -36 -10
-16 -7 -33 -12 -38 -12 -5 0 -9 -4 -9 -9 0 -5 -12 -14 -27 -20 -32 -12 -81
-41 -101 -58 -7 -7 -17 -13 -21 -13 -4 0 -24 -16 -44 -35 -20 -19 -39 -35 -42
-35 -3 0 -32 -27 -65 -60 -33 -33 -57 -60 -55 -60 2 0 -12 -16 -30 -36 -19
-20 -37 -45 -40 -55 -4 -10 -11 -19 -16 -19 -6 0 -8 -4 -5 -9 3 -5 -1 -14 -9
-21 -8 -7 -25 -33 -37 -59 -13 -25 -27 -49 -31 -52 -5 -3 -9 -10 -9 -15 1 -5
-5 -22 -13 -39 -13 -31 -21 -52 -25 -70 -1 -5 -5 -14 -10 -20 -4 -5 -11 -28
-15 -50 -4 -22 -10 -44 -14 -50 -7 -13 -14 -43 -15 -72 -1 -13 -3 -23 -6 -23
-5 0 -7 -15 -12 -107 -2 -29 -5 -53 -8 -53 -10 0 -5 -125 5 -132 7 -5 6 -8 -1
-8 -6 0 -10 -12 -8 -27 2 -16 6 -48 9 -73 8 -74 13 -101 41 -230 3 -14 15 -56
26 -95 12 -38 21 -73 20 -77 -1 -5 2 -8 8 -8 6 0 9 -3 9 -7 -1 -5 0 -11 1 -15
1 -5 3 -11 5 -15 15 -55 117 -263 128 -263 5 0 6 -4 2 -9 -3 -5 -1 -12 4 -16
5 -3 16 -18 24 -33 21 -42 41 -75 55 -94 18 -22 11 -24 -89 -33 l-86 -7 -33
56 c-37 60 -31 58 -142 60 -27 0 -48 4 -48 7 0 4 -8 5 -17 3 -51 -10 -103 -10
-103 0 0 7 -3 7 -8 1 -4 -5 -16 -11 -27 -11 -52 -3 -138 -15 -220 -30 -49 -9
-94 -17 -100 -18 -5 -1 -16 -5 -23 -10 -7 -4 -16 -5 -19 -2 -3 3 -13 1 -23 -4
-9 -5 -28 -11 -41 -14 -29 -6 -88 -26 -112 -38 -10 -5 -22 -6 -27 -3 -6 4 -10
1 -10 -4 0 -6 -3 -10 -7 -9 -15 3 -170 -70 -198 -93 -54 -45 -85 -86 -92 -122
-5 -22 -15 -43 -23 -47 -79 -39 -87 -39 -65 4 8 15 12 32 9 37 -3 5 -1 9 4 9
6 0 13 11 16 25 4 14 11 23 16 20 5 -3 7 4 5 15 -2 11 1 20 6 20 6 0 7 5 4 10
-3 6 -1 10 5 10 6 0 9 4 6 9 -3 5 1 12 10 15 8 3 13 10 10 15 -4 5 0 16 8 24
8 8 12 17 9 21 -4 3 -1 6 6 6 7 0 10 4 7 8 -3 5 3 18 14 29 10 12 16 24 13 27
-4 3 -1 6 6 6 7 0 9 5 6 10 -3 6 -1 10 4 10 6 0 11 7 11 16 0 8 4 12 10 9 6
-3 7 1 4 9 -3 9 -1 16 4 16 6 0 20 20 31 45 11 25 25 45 31 45 6 0 9 4 5 9 -3
5 -1 12 5 16 6 4 8 10 5 15 -3 4 2 10 10 14 8 3 15 12 15 21 0 8 5 15 11 15 6
0 8 7 5 16 -3 8 -2 12 4 9 5 -3 12 6 16 20 3 14 10 25 15 25 5 0 9 6 9 13 0 7
8 22 18 33 9 10 18 28 20 39 2 11 10 25 18 31 7 6 11 14 7 17 -3 4 1 9 10 13
9 3 13 12 10 20 -3 7 2 17 11 20 9 3 14 10 11 14 -3 5 2 16 11 24 8 9 13 16 9
16 -3 0 0 10 7 23 7 12 11 25 10 30 -1 4 3 7 9 7 6 0 9 6 6 14 -3 8 1 17 9 20
8 3 13 9 13 13 -1 4 6 26 16 48 10 22 18 46 18 53 0 6 4 12 9 12 5 0 6 5 3 10
-3 6 -1 10 4 10 6 0 10 3 10 8 -1 4 -1 9 1 12 1 3 4 16 6 30 2 13 10 28 17 32
6 4 9 8 5 8 -4 0 -1 18 7 40 15 42 15 43 15 61 0 5 3 8 8 6 4 -3 6 9 6 26 -1
18 4 46 11 62 6 17 10 36 7 43 -2 7 2 20 10 29 10 13 10 17 0 20 -6 3 -9 10
-5 16 10 17 13 33 16 104 2 34 6 65 9 69 4 3 3 16 -1 28 -4 11 -7 45 -7 74 1
28 -3 52 -8 52 -5 0 -2 8 5 17 11 13 11 15 1 9 -11 -6 -12 -1 -9 23 3 17 1 31
-5 31 -5 0 -8 8 -7 18 1 9 0 20 -1 25 -1 4 -3 10 -4 15 -1 4 -5 13 -10 21 -7
11 -6 12 5 6 11 -7 12 -6 2 6 -7 9 -14 25 -16 37 -2 12 -6 25 -10 28 -4 4 -7
15 -7 25 0 10 -9 33 -20 51 -11 18 -20 41 -20 51 0 9 -4 17 -9 17 -5 0 -14 14
-21 30 -7 17 -15 30 -19 30 -3 0 -12 14 -19 30 -8 17 -18 28 -23 24 -5 -3 -9
0 -9 6 0 12 -63 75 -100 100 -12 8 -28 20 -34 26 -6 6 -14 10 -18 10 -4 -1
-16 6 -26 15 -10 8 -23 14 -30 11 -7 -2 -12 1 -12 7 0 6 -6 11 -14 11 -8 0
-27 5 -43 11 -15 6 -48 13 -73 15 -25 2 -55 5 -67 8 -13 3 -23 0 -23 -6 0 -7
-6 -6 -15 2 -8 7 -15 8 -15 3 0 -5 -10 -9 -22 -10 -38 -1 -82 -10 -108 -20
-14 -6 -28 -11 -32 -12 -4 -1 -28 -12 -52 -26 -24 -13 -47 -21 -51 -17 -5 4
-5 1 -1 -5 4 -7 2 -13 -4 -13 -11 0 -55 -30 -109 -75 -44 -36 -132 -129 -164
-172 -17 -24 -34 -43 -39 -43 -4 0 -8 -5 -8 -10 0 -6 -15 -32 -32 -58 -45 -66
-54 -80 -80 -132 -13 -25 -26 -46 -30 -48 -5 -2 -8 -12 -8 -23 0 -10 -4 -19
-10 -19 -5 0 -10 -6 -10 -13 0 -7 -10 -33 -22 -58 -11 -24 -21 -50 -21 -56 0
-7 -4 -13 -9 -13 -4 0 -8 -8 -8 -17 -1 -10 -9 -36 -20 -58 -11 -22 -19 -45
-20 -51 0 -6 -9 -40 -20 -75 -12 -35 -22 -71 -24 -79 -8 -44 -29 -137 -33
-150 -8 -20 -10 -36 -16 -98 -3 -28 -8 -56 -11 -60 -5 -9 -19 -120 -31 -252
-3 -36 -8 -78 -10 -95 -3 -16 -7 -75 -10 -130 -3 -55 -8 -163 -12 -240 -3 -77
-7 -230 -7 -340 0 -181 3 -231 21 -360 2 -22 6 -51 8 -66 5 -32 -13 -43 -114
-69 -44 -11 -91 -24 -105 -30 -29 -11 -34 2 -32 84 1 53 0 56 -23 56 -32 0
-363 -142 -576 -246 -136 -66 -202 -105 -336 -193 -122 -80 -122 -81 -93 -91
58 -21 109 -48 91 -49 -10 -1 -25 -8 -34 -16 -8 -8 -19 -13 -24 -10 -5 4 -9 2
-9 -4 0 -6 -17 -19 -39 -30 -38 -20 -57 -20 -126 -2 -31 8 -58 7 -160 -4 -106
-11 -105 -10 -210 -60 -91 -44 -119 -89 -100 -165 5 -21 2 -27 -22 -38 -49
-22 -88 -45 -95 -56 -5 -6 -8 -7 -8 -1 0 6 -5 2 -11 -8 -6 -9 -14 -15 -20 -12
-5 4 -9 1 -9 -4 0 -6 -4 -11 -9 -11 -11 0 -54 -36 -129 -107 -30 -29 -60 -53
-65 -53 -6 0 -8 -3 -5 -6 3 -3 -12 -24 -34 -47 -54 -56 -135 -158 -185 -232
-33 -50 -123 -224 -123 -239 0 -3 -18 -42 -39 -88 -48 -102 -104 -308 -126
-463 -2 -11 -6 -36 -10 -55 -11 -58 -13 -328 -4 -430 16 -165 76 -377 145
-506 45 -85 76 -138 103 -179 33 -50 51 -90 51 -116 0 -11 4 -17 10 -14 6 3 7
-1 4 -9 -3 -9 -2 -16 2 -16 5 0 10 -12 11 -27 0 -16 3 -60 6 -100 2 -40 1 -70
-3 -68 -4 2 -7 -2 -7 -10 0 -8 3 -15 7 -15 8 0 6 -31 -2 -46 -4 -6 -8 -31 -10
-57 -2 -26 -7 -47 -13 -47 -5 0 -3 -5 5 -10 8 -5 10 -10 5 -10 -6 0 -12 -16
-13 -37 -2 -20 -6 -41 -9 -47 -4 -6 -7 -23 -8 -38 -1 -14 -8 -35 -16 -44 -12
-15 -12 -17 0 -9 11 6 13 4 7 -11 -15 -36 -34 -119 -30 -126 2 -4 -4 -11 -13
-17 -11 -6 -13 -11 -5 -11 8 0 10 -5 5 -12 -4 -7 -8 -17 -10 -23 -1 -5 -4 -21
-7 -34 -3 -14 -11 -28 -18 -33 -10 -6 -9 -8 2 -8 12 0 13 -2 1 -9 -7 -5 -10
-14 -7 -20 4 -6 2 -11 -4 -11 -7 0 -10 -7 -6 -15 3 -8 0 -15 -6 -15 -6 0 -9
-3 -5 -6 3 -4 0 -19 -8 -34 -8 -15 -12 -30 -9 -33 4 -3 -1 -16 -10 -29 -9 -12
-16 -31 -16 -41 0 -11 -4 -15 -12 -11 -8 5 -9 2 -5 -9 3 -9 2 -19 -4 -22 -5
-4 -7 -11 -4 -16 4 -5 2 -9 -4 -9 -5 0 -8 -9 -6 -20 2 -11 0 -18 -4 -15 -8 4
-23 -35 -20 -51 0 -4 -4 -10 -11 -14 -6 -4 -12 -13 -14 -21 -1 -8 -8 -24 -14
-36 -7 -13 -10 -23 -7 -23 4 0 -1 -7 -9 -16 -9 -8 -14 -20 -10 -25 3 -5 -2
-12 -10 -15 -9 -3 -14 -10 -11 -14 3 -4 -6 -24 -20 -44 -13 -20 -19 -36 -13
-36 7 0 4 -6 -5 -12 -9 -7 -17 -20 -19 -28 -2 -8 -9 -21 -16 -28 -7 -8 -9 -19
-5 -25 4 -6 0 -8 -10 -4 -11 4 -14 2 -11 -7 3 -7 -2 -20 -10 -29 -8 -8 -12
-17 -9 -21 4 -3 1 -6 -6 -6 -7 0 -9 -5 -6 -10 3 -6 -1 -13 -9 -16 -9 -3 -13
-10 -10 -15 3 -5 0 -9 -5 -9 -6 0 -11 -8 -11 -17 -1 -22 -25 -55 -33 -46 -6 6
-11 -21 -8 -40 1 -5 -3 -6 -8 -3 -5 3 -16 -10 -25 -29 -9 -19 -21 -35 -27 -35
-6 0 -7 -4 -4 -10 3 -5 1 -10 -4 -10 -6 0 -11 -6 -11 -14 0 -8 -4 -16 -9 -18
-4 -1 -20 -22 -35 -45 -14 -24 -31 -43 -37 -43 -5 0 -8 -4 -4 -9 3 -6 -1 -13
-8 -18 -7 -4 -17 -16 -20 -26 -4 -10 -12 -15 -17 -12 -6 4 -10 3 -9 -2 3 -19
-2 -34 -10 -29 -5 3 -12 -6 -15 -19 -4 -14 -11 -23 -16 -20 -6 3 -10 -1 -10
-10 0 -8 -7 -18 -15 -21 -8 -4 -15 -12 -15 -19 0 -7 -11 -20 -24 -31 -14 -10
-23 -21 -20 -26 3 -4 -2 -8 -11 -8 -9 0 -14 -4 -11 -9 3 -5 -1 -12 -10 -15 -8
-3 -13 -9 -11 -13 4 -9 -29 -44 -35 -37 -2 2 -15 -14 -29 -35 -13 -21 -29 -37
-35 -34 -6 2 -14 -6 -17 -17 -3 -12 -10 -19 -16 -15 -6 3 -8 0 -5 -9 3 -8 -2
-17 -13 -20 -10 -3 -27 -19 -38 -35 -10 -16 -22 -29 -25 -28 -3 1 -32 -24 -63
-56 -31 -33 -57 -55 -57 -50 -1 4 -7 -3 -15 -17 -8 -14 -14 -21 -15 -17 0 5
-16 -7 -35 -27 -19 -20 -38 -37 -42 -39 -5 -1 -7 -5 -5 -9 1 -5 -7 -8 -19 -8
-11 0 -18 -4 -14 -9 3 -5 -4 -12 -15 -16 -11 -4 -18 -10 -15 -15 3 -5 -4 -12
-15 -15 -12 -4 -40 -24 -63 -46 -23 -21 -47 -39 -53 -39 -7 0 -15 -7 -18 -16
-3 -8 -10 -12 -16 -9 -5 3 -10 2 -10 -3 0 -5 -28 -27 -63 -50 -34 -22 -73 -50
-86 -61 -13 -12 -30 -21 -38 -21 -7 0 -13 -4 -13 -10 0 -5 -7 -10 -16 -10 -9
0 -12 -5 -8 -12 5 -7 2 -9 -9 -5 -9 3 -18 0 -21 -9 -3 -9 -10 -12 -16 -9 -12
7 -62 -29 -53 -39 5 -5 -2 -7 -22 -6 -3 1 -13 -6 -21 -15 -9 -8 -19 -13 -24
-10 -4 3 -11 -2 -14 -11 -3 -8 -10 -12 -16 -9 -5 3 -10 1 -10 -5 0 -6 -4 -9
-9 -5 -6 3 -13 -1 -18 -9 -4 -8 -10 -14 -13 -14 -10 0 -85 -37 -88 -45 -2 -4
-8 -5 -13 -1 -5 3 -9 0 -9 -5 0 -6 -3 -10 -7 -9 -15 3 -83 -31 -83 -42 0 -6
-4 -9 -9 -6 -5 3 -31 -4 -57 -16 -27 -12 -55 -23 -63 -24 -8 -2 -17 -8 -21
-15 -4 -6 -13 -8 -19 -5 -6 4 -11 2 -11 -4 0 -6 -4 -9 -9 -5 -5 3 -12 1 -16
-5 -3 -5 -17 -10 -30 -10 -13 0 -25 -4 -27 -10 -1 -5 -12 -11 -23 -13 -48 -9
-74 -20 -69 -28 3 -5 -2 -6 -11 -3 -8 4 -21 2 -28 -4 -6 -6 -15 -11 -20 -11
-23 -2 -64 -15 -76 -25 -12 -9 -13 -8 -6 4 7 12 6 13 -6 3 -8 -6 -17 -12 -21
-12 -5 -1 -9 -1 -10 -2 -18 -5 -47 -11 -60 -12 -10 -1 -18 -4 -18 -7 0 -3 -9
-7 -20 -8 -44 -4 -50 -6 -50 -16 0 -6 -5 -4 -10 4 -7 11 -10 12 -10 2 0 -9 -7
-11 -20 -7 -11 3 -20 2 -20 -4 0 -5 -9 -8 -20 -6 -11 2 -22 -1 -25 -6 -4 -5
-10 -7 -15 -4 -5 3 -19 1 -31 -6 -17 -9 -20 -8 -13 3 6 10 5 11 -8 1 -8 -7
-17 -10 -21 -7 -3 3 -14 1 -26 -5 -14 -8 -22 -8 -26 -1 -5 8 -11 7 -21 -1 -8
-6 -14 -8 -14 -4 0 4 -7 2 -15 -5 -12 -10 -18 -10 -29 -1 -9 7 -17 8 -20 2 -3
-5 -20 -8 -37 -7 -16 1 -33 -2 -35 -6 -3 -5 -12 -4 -20 3 -11 9 -14 9 -14 0 0
-9 -5 -9 -20 -1 -16 9 -19 8 -13 -6 5 -13 3 -15 -8 -8 -19 12 -92 11 -101 -1
-5 -7 -8 -7 -8 0 0 6 -26 10 -62 9 -35 -1 -68 3 -73 7 -6 4 -17 4 -24 0 -8 -5
-25 -6 -40 -2 -14 4 -38 7 -53 6 -16 -1 -28 2 -28 6 0 4 -10 6 -22 4 -12 -3
-28 1 -37 8 -12 9 -13 9 -7 0 4 -7 2 -13 -3 -13 -6 0 -11 4 -11 9 0 5 -10 7
-22 3 -16 -4 -19 -2 -13 9 8 12 6 12 -8 0 -13 -11 -17 -11 -17 -1 0 8 -3 10
-7 7 -3 -4 -12 -2 -20 4 -10 9 -13 8 -13 -1 0 -10 -4 -9 -16 1 -9 7 -30 14
-47 15 -18 1 -34 3 -37 4 -3 2 -9 4 -15 4 -5 1 -21 8 -35 16 -14 7 -26 13 -27
12 -10 -7 -43 0 -39 7 4 5 -3 7 -14 4 -12 -3 -20 0 -20 7 0 7 -7 10 -15 6 -8
-3 -15 -1 -15 5 0 6 -7 9 -15 5 -8 -3 -15 -1 -15 4 0 6 -3 9 -7 8 -5 -1 -18 3
-29 10 -12 6 -24 8 -28 5 -3 -3 -6 -1 -6 6 0 7 -4 10 -9 6 -13 -8 -18 3 -25
60 -4 28 -10 61 -13 75 -12 52 -68 177 -100 221 -35 49 -134 139 -152 139 -6
0 -11 3 -11 8 0 4 -19 16 -43 26 -115 51 -228 61 -316 27 -57 -21 -59 -21
-102 19 -29 27 -49 66 -68 132 -33 113 -16 238 68 503 29 92 32 110 30 225 -2
197 -19 293 -69 387 -37 71 -83 102 -185 124 -59 12 -130 38 -110 39 6 0 6 3
-1 8 -5 4 -20 23 -32 43 -24 39 -67 76 -119 101 -45 22 -165 21 -227 -3 -115
-43 -238 -154 -365 -329 -22 -30 -45 -61 -51 -68 -25 -28 -116 -182 -156 -262
-60 -121 -116 -260 -140 -352 -1 -5 -2 -9 -4 -10 -1 -2 -3 -10 -5 -18 -19 -77
-35 -151 -39 -180 -3 -14 -7 -41 -10 -61 -4 -20 -8 -66 -10 -103 -2 -37 -5
-69 -7 -71 -9 -8 2 -259 15 -380 22 -186 87 -411 177 -603 92 -198 99 -209
224 -395 55 -81 105 -156 110 -165 6 -9 13 -19 16 -22 3 -3 25 -32 49 -65 108
-150 332 -378 510 -518 47 -37 90 -72 97 -77 7 -6 17 -10 23 -10 5 0 10 -5 10
-12 0 -6 3 -9 6 -5 5 5 27 -10 59 -40 8 -7 17 -13 20 -13 4 0 37 -19 73 -42
36 -24 68 -43 71 -43 3 0 17 -8 31 -17 38 -26 248 -124 315 -148 33 -12 107
-37 165 -56 58 -18 119 -39 137 -44 18 -6 40 -13 50 -15 10 -2 33 -8 51 -14
18 -5 34 -10 37 -11 3 0 10 -2 17 -4 70 -18 103 -23 106 -15 2 5 10 2 18 -5 8
-8 23 -13 34 -11 11 2 20 0 20 -4 0 -5 21 -11 48 -14 26 -4 63 -10 82 -14 19
-3 45 -7 58 -7 12 -1 22 -3 22 -6 0 -3 16 -7 35 -8 20 -2 47 -7 61 -12 19 -7
23 -7 18 2 -5 8 -2 9 12 4 10 -4 29 -10 41 -12 12 -2 35 -9 49 -15 20 -7 29
-7 34 2 5 7 9 8 11 1 4 -10 18 -14 99 -28 43 -8 51 -9 70 -17 27 -9 104 -28
130 -31 14 -1 34 -8 45 -13 11 -6 22 -11 25 -11 40 -4 92 -17 96 -23 3 -5 14
-9 25 -9 10 0 27 -4 37 -10 9 -5 73 -36 142 -68 69 -33 159 -82 201 -110 72
-49 220 -193 256 -250 10 -15 20 -29 23 -32 20 -18 140 -247 133 -254 -4 -3
-2 -6 3 -6 5 0 10 -10 11 -22 1 -11 8 -25 15 -29 7 -5 10 -9 6 -9 -4 0 -2 -15
3 -32 6 -18 12 -46 15 -63 3 -16 13 -66 24 -110 10 -44 21 -93 24 -110 9 -50
43 -178 57 -210 7 -16 13 -33 13 -37 2 -16 119 -189 157 -232 53 -60 141 -127
204 -156 61 -27 177 -35 216 -14 15 7 29 10 33 7 3 -4 6 -1 6 5 0 7 4 12 10
12 15 0 58 40 104 96 57 71 63 80 113 171 33 61 73 70 138 32 38 -23 109 -27
178 -10 53 13 150 58 184 87 12 11 32 27 44 36 44 34 137 127 165 165 16 21
33 41 39 45 5 4 6 8 2 8 -5 0 0 12 11 28 58 80 62 208 12 308 -18 35 -37 64
-41 64 -21 0 -4 29 45 79 l53 54 45 -27 c25 -14 52 -26 61 -26 10 0 17 -4 17
-9 0 -5 26 -8 58 -7 58 2 136 32 176 68 11 10 23 18 27 18 4 0 15 8 25 17 9
10 30 28 47 40 16 12 45 36 65 55 21 18 68 60 107 93 183 157 239 252 212 358
-7 27 4 59 29 85 11 10 24 7 74 -18 33 -17 60 -27 60 -24 0 4 6 2 13 -4 17
-15 80 -6 135 18 25 11 51 20 58 20 8 0 14 5 14 10 0 6 3 9 8 8 4 -1 50 12
102 29 52 17 126 39 164 49 81 21 120 51 156 121 14 26 31 56 39 66 8 9 11 17
7 17 -4 0 7 20 24 45 17 25 35 43 40 40 4 -3 10 -1 12 5 5 17 161 24 245 11
91 -15 144 -31 233 -73 112 -52 340 -202 410 -268 15 -14 51 -48 81 -76 157
-148 312 -339 429 -529 73 -118 90 -151 288 -550 102 -205 105 -209 115 -216
5 -3 8 -9 7 -13 -2 -9 72 -130 82 -134 4 -2 8 -8 8 -13 0 -36 272 -375 383
-479 21 -19 53 -49 70 -65 18 -17 57 -50 87 -75 30 -25 57 -47 60 -50 3 -3 34
-27 70 -53 36 -27 73 -55 83 -63 9 -8 21 -14 25 -14 5 0 17 -8 28 -17 21 -19
26 -22 113 -75 83 -51 112 -69 166 -99 54 -31 245 -126 310 -154 22 -9 48 -21
57 -26 40 -21 323 -116 370 -124 17 -3 35 -8 39 -11 8 -4 137 -31 184 -38 225
-33 464 -37 457 -7 -1 7 2 10 8 6 6 -3 8 -10 5 -15 -3 -4 10 -5 28 -1 18 5 40
7 50 5 9 -1 17 1 17 5 0 3 17 6 38 5 95 -2 177 48 225 141 29 57 32 173 6 268
-18 64 -74 194 -89 207 -3 3 -14 21 -23 41 -9 20 -23 42 -32 49 -8 7 -15 17
-15 22 0 16 -69 101 -155 192 -11 11 -39 38 -62 58 -23 20 -38 40 -35 44 4 4
2 4 -4 1 -6 -3 -25 7 -43 23 -18 17 -35 30 -39 30 -4 0 -22 14 -39 31 -18 16
-33 27 -33 24 0 -4 -6 0 -14 7 -7 7 -35 31 -62 53 -41 33 -136 127 -198 195
-35 39 -106 155 -121 200 -1 3 -7 19 -15 35 -48 113 -63 254 -46 420 4 33 9
80 12 105 21 198 148 485 295 666 35 43 231 234 240 234 4 0 14 6 21 13 25 22
97 77 102 77 3 0 36 18 72 41 91 55 263 136 305 143 19 3 66 11 105 19 40 7
82 12 94 10 14 -2 19 1 14 9 -4 6 -3 8 3 5 6 -4 80 -9 164 -11 184 -6 214 -10
344 -43 96 -25 125 -35 233 -85 26 -12 50 -21 55 -20 4 1 7 -2 7 -8 0 -5 7
-10 15 -10 8 0 15 -4 15 -10 0 -5 8 -10 18 -10 10 0 22 -4 27 -9 6 -4 53 -31
105 -58 135 -71 164 -88 260 -151 84 -55 320 -222 330 -232 3 -3 21 -17 40
-30 19 -13 37 -27 40 -30 11 -15 301 -230 309 -230 5 0 11 -4 13 -8 2 -5 26
-23 53 -42 28 -18 52 -36 55 -39 21 -24 298 -191 368 -222 17 -7 32 -17 32
-21 0 -5 3 -7 8 -6 4 1 43 -15 87 -36 77 -37 143 -64 175 -71 8 -2 42 -13 75
-25 33 -11 73 -23 90 -26 30 -5 58 -12 128 -34 21 -6 50 -13 65 -15 15 -3 38
-7 52 -10 14 -3 36 -7 50 -10 14 -2 45 -8 70 -13 109 -25 231 -35 420 -35 110
0 255 8 255 13 0 3 43 10 77 12 21 2 38 7 38 12 0 5 3 7 6 4 3 -4 18 -3 34 2
18 5 32 4 40 -3 10 -9 11 -9 6 1 -4 7 -2 12 6 13 7 0 21 2 31 5 9 2 25 6 35 8
9 3 18 5 20 6 1 2 6 3 11 4 5 0 13 4 17 8 12 13 26 9 18 -4 -5 -8 -1 -7 10 2
18 14 26 17 61 22 11 2 23 7 26 11 3 5 15 10 25 12 10 2 20 4 22 5 1 2 5 3 10
4 4 1 13 5 20 9 7 5 12 3 12 -4 0 -7 6 -5 14 6 8 11 19 16 30 12 9 -4 16 -2
16 3 0 5 10 12 23 15 90 27 309 157 402 240 22 19 44 35 49 35 5 0 6 3 3 7 -4
3 5 15 20 25 16 10 25 18 21 18 -4 0 8 16 26 35 67 69 177 291 202 406 18 89
21 119 19 190 -7 196 -72 342 -210 472 -38 36 -167 106 -225 122 -36 9 -50 19
-50 35 0 35 -23 69 -58 86 -24 11 -71 17 -156 20 -109 4 -123 3 -144 -15 -12
-11 -23 -31 -24 -45 -3 -34 -34 -35 -49 -2 -11 24 -51 42 -69 31 -5 -3 -11 -1
-14 3 -8 13 -153 -16 -202 -39 -34 -16 -44 -27 -51 -57 -11 -42 -7 -65 9 -56
7 5 8 2 3 -6 -6 -10 -13 -8 -27 11 -49 62 -55 66 -108 63 -27 -1 -55 -6 -62
-11 -7 -4 -15 -8 -18 -8 -15 -2 -72 -38 -104 -67 -32 -28 -52 -57 -61 -90 -2
-5 -4 -11 -5 -15 -4 -15 2 -58 10 -68 5 -5 8 -14 8 -18 0 -5 9 -19 19 -31 15
-17 17 -27 10 -44 -6 -12 -13 -22 -18 -22 -11 0 -73 116 -94 175 -9 28 -20 57
-23 65 -12 33 -15 58 -15 130 -1 87 10 238 18 251 4 5 8 23 10 41 2 18 13 65
25 103 11 39 22 77 24 85 8 32 69 185 77 194 5 6 9 18 9 27 0 10 3 19 8 21 4
2 20 29 37 61 16 31 33 57 37 57 4 0 8 7 8 16 0 8 6 22 13 29 30 35 37 45 30
45 -4 0 -3 4 2 8 6 4 35 39 66 77 62 78 143 165 152 165 4 0 22 16 41 35 20
19 40 35 45 35 6 0 15 8 20 18 6 9 11 13 11 8 0 -5 9 1 19 13 11 12 23 23 28
23 4 0 32 16 61 34 29 19 59 34 66 34 8 0 16 4 18 9 3 9 181 97 208 103 8 2
17 5 20 8 8 9 131 54 295 110 169 57 403 112 483 114 12 0 22 2 22 6 0 6 133
5 146 -1 9 -4 64 -3 74 1 3 1 21 3 40 4 25 1 36 -3 37 -14 3 -49 14 -95 25
-102 7 -4 9 -8 3 -8 -17 0 35 -31 55 -33 11 -1 20 -4 20 -7 0 -4 60 -6 133 -4
72 1 132 3 132 4 0 2 14 4 30 5 52 3 108 16 140 32 31 17 74 61 76 78 0 6 3
19 5 30 9 36 11 80 5 90 -11 17 -13 63 -2 69 6 4 18 -6 28 -21 9 -15 33 -43
53 -61 30 -28 41 -32 75 -28 106 11 308 152 368 257 33 57 34 82 2 145 -26 51
-32 80 -15 69 6 -3 13 1 16 9 5 14 10 13 35 -5 34 -24 90 -20 123 9 40 34 85
86 80 93 -2 4 3 10 12 13 8 3 12 10 9 16 -3 5 -2 10 3 10 5 0 9 6 10 13 10 74
10 87 0 87 -6 0 -9 3 -5 6 3 3 -8 21 -25 40 -18 19 -33 48 -35 66 -5 49 -52
102 -99 110 -58 11 -126 18 -217 23 -45 3 -107 7 -137 9 -30 3 -95 8 -145 11
-49 3 -103 8 -120 11 -77 13 -94 16 -145 29 -30 8 -68 17 -85 20 -69 14 -83
17 -140 31 -33 8 -82 22 -110 32 -27 9 -52 17 -55 17 -3 1 -14 5 -25 9 -11 5
-36 14 -55 21 -94 35 -643 303 -648 317 -2 4 -10 8 -18 8 -9 0 -12 5 -8 12 5
7 3 8 -6 3 -8 -5 -18 -1 -27 10 -7 11 -13 15 -13 11 0 -5 -7 -2 -16 5 -9 7
-24 18 -33 24 -66 40 -82 53 -92 72 -7 12 -15 21 -18 18 -7 -4 -13 26 -11 55
0 8 0 23 1 33 0 9 4 15 10 12 5 -4 9 0 9 7 0 7 14 28 31 46 28 31 33 33 72 26
60 -12 77 -10 118 9 42 21 159 139 181 182 21 42 17 92 -13 147 -15 30 -11 51
9 43 72 -29 143 -8 187 55 30 43 114 244 115 273 0 24 -28 77 -41 77 -6 0 -17
7 -25 15 -13 13 -7 14 51 8 60 -5 68 -4 105 22 51 35 99 108 138 210 54 138
51 204 -9 265 -35 35 -38 42 -29 66 19 50 14 120 -12 171 -20 39 -39 57 -102
95 -88 53 -162 73 -245 65 -121 -12 -205 -45 -328 -129 -24 -16 -43 -25 -43
-21 0 4 -4 3 -8 -3 -4 -5 -41 -31 -82 -56 -41 -25 -112 -68 -157 -96 -46 -28
-83 -48 -83 -44 0 4 -4 2 -8 -4 -10 -16 -108 -64 -116 -57 -3 4 -6 2 -6 -4 0
-14 -49 -35 -62 -27 -7 4 -8 2 -4 -4 6 -10 -2 -13 -29 -12 -3 1 -13 -6 -21
-15 -9 -8 -20 -13 -25 -10 -5 4 -9 1 -9 -4 0 -6 -10 -11 -23 -11 -12 0 -32 -7
-44 -15 -12 -9 -26 -15 -30 -14 -4 1 -17 -1 -28 -5 -77 -30 -93 -34 -99 -29
-3 4 -6 1 -6 -5 0 -7 -9 -12 -21 -12 -11 0 -28 -4 -38 -10 -17 -9 -63 -21 -88
-22 -7 -1 -13 -5 -13 -9 0 -4 -8 -6 -17 -4 -10 1 -22 0 -28 -4 -11 -6 -29 -11
-65 -16 -14 -1 -26 -4 -27 -5 -2 -1 -11 -3 -20 -4 -10 -1 -22 -4 -28 -8 -5 -3
-32 -9 -60 -13 -82 -11 -109 -16 -125 -20 -8 -2 -37 -6 -64 -10 -27 -3 -53 -8
-58 -11 -4 -3 -8 0 -8 6 0 7 -6 8 -18 1 -50 -27 -482 -31 -652 -7 -177 25
-300 53 -443 100 -127 41 -153 52 -295 117 -61 28 -217 123 -237 144 -5 6 -26
23 -45 37 -42 31 -144 131 -185 182 -16 21 -34 43 -40 50 -12 14 -64 88 -87
124 -35 56 -50 93 -45 112 3 11 1 18 -4 14 -5 -3 -10 12 -10 33 -3 86 -5 108
-10 118 -6 9 -4 71 3 168 2 21 0 41 -4 44 -5 2 -5 10 -1 16 7 11 11 43 16 117
1 14 6 28 12 32 6 5 6 8 -2 8 -6 0 -10 8 -8 18 2 9 4 17 5 17 2 0 7 110 10
233 2 66 7 102 14 102 7 0 7 3 1 8 -14 10 -17 65 -3 56 8 -5 8 -3 2 7 -5 8
-10 52 -10 99 -1 87 -11 259 -20 340 -3 25 -6 68 -8 97 -3 29 -7 57 -11 64 -4
6 -9 30 -11 53 -4 49 -8 68 -15 81 -3 6 -5 21 -5 35 1 14 -2 27 -5 30 -3 3
-13 34 -22 70 -9 36 -20 74 -23 85 -3 11 -6 27 -7 35 -1 8 -5 17 -9 20 -4 3
-9 17 -10 30 -2 14 -7 28 -11 31 -5 3 -10 12 -11 20 -2 8 -9 28 -16 44 -7 17
-14 35 -16 40 -3 14 -22 57 -33 75 -5 8 -28 55 -52 104 -24 49 -54 105 -66
123 -13 19 -23 36 -23 39 0 5 -52 87 -60 94 -3 3 -17 21 -30 40 -13 19 -29 40
-35 46 -5 7 -23 28 -40 49 -35 42 -150 157 -190 188 -15 12 -44 37 -64 54 -20
18 -42 33 -48 33 -7 0 -13 4 -13 8 0 4 -25 23 -56 42 -31 19 -63 40 -70 48 -8
7 -14 10 -14 5 0 -4 -4 -3 -8 2 -8 12 -73 47 -78 42 -2 -1 -4 -20 -6 -40 -1
-21 -5 -36 -8 -34 -3 1 -35 18 -72 37 -37 18 -69 42 -71 52 -3 10 -2 18 1 18
4 0 7 41 7 90 0 50 -4 90 -8 90 -4 0 -3 9 3 19 7 14 7 22 0 26 -8 5 -8 11 -1
19 6 7 7 16 3 20 -10 11 -9 30 3 38 6 5 5 8 -4 8 -11 0 -11 3 -1 15 10 12 10
15 0 15 -10 0 -10 3 0 15 10 12 10 15 0 15 -9 0 -9 4 -2 13 6 6 9 27 8 45 -1
17 1 32 4 32 3 0 5 18 4 40 -1 22 2 40 6 40 4 0 7 7 7 15 0 8 -5 15 -11 15 -7
0 -7 3 1 8 11 7 24 68 26 125 1 15 4 27 8 27 4 0 8 8 9 18 3 59 8 85 21 93 12
7 12 9 0 9 -9 0 -10 4 -3 13 5 6 10 25 10 41 0 15 3 31 8 35 5 3 10 17 11 31
3 35 7 53 17 69 7 10 5 12 -3 6 -10 -6 -11 -3 -2 14 7 12 13 38 15 59 2 20 7
45 11 55 4 9 5 24 1 32 -3 8 -1 15 4 15 5 0 7 9 5 20 -2 11 -1 20 3 20 5 0 8
12 8 28 2 69 9 152 14 152 3 0 5 33 5 73 0 39 3 82 7 95 5 13 3 22 -3 22 -6 0
-7 6 -3 12 9 15 7 52 -12 218 -3 25 -6 51 -6 58 -1 6 -6 12 -11 12 -6 0 -8 3
-5 6 4 3 -3 36 -14 72 -11 37 -21 76 -22 86 -2 11 -8 22 -14 24 -7 2 -10 8 -6
13 3 5 0 9 -6 9 -6 0 -8 5 -4 12 4 6 -1 17 -11 25 -11 7 -16 13 -12 13 4 0 -3
17 -17 37 -14 20 -22 41 -19 46 3 6 2 7 -4 4 -5 -4 -16 6 -24 21 -8 15 -28 41
-45 59 -18 17 -29 34 -26 37 3 3 0 6 -7 6 -16 0 -42 26 -34 34 4 3 -1 6 -11 6
-9 0 -19 7 -22 15 -4 8 -10 12 -15 9 -5 -3 -9 2 -9 10 0 9 -7 16 -15 16 -9 0
-26 11 -38 23 -12 13 -28 22 -34 20 -7 -3 -13 0 -13 5 0 10 -113 62 -136 62
-8 0 -14 4 -14 8 0 4 -14 9 -32 10 -17 2 -36 6 -42 11 -6 5 -21 7 -33 6 -13
-1 -23 1 -23 5 0 3 -13 5 -30 4 -16 -1 -30 1 -30 4 0 9 -128 7 -137 -1 -3 -4
-13 -2 -23 3 -10 5 -21 5 -26 0z m-7524 -9510 c0 -5 -5 -10 -11 -10 -5 0 -7 5
-4 10 3 6 8 10 11 10 2 0 4 -4 4 -10z m12048 -1875 c-3 -3 -9 2 -12 12 -6 14
-5 15 5 6 7 -7 10 -15 7 -18z m-9184 -221 c3 -8 2 -12 -4 -9 -6 3 -10 10 -10
16 0 14 7 11 14 -7z m26 -34 c0 -5 -4 -10 -10 -10 -5 0 -10 5 -10 10 0 6 5 10
10 10 6 0 10 -4 10 -10z m3 -71 c-4 -15 -8 -17 -14 -8 -6 11 4 28 18 29 0 0
-1 -9 -4 -21z m-1953 -664 c-7 -8 -17 -15 -23 -15 -6 0 -2 7 9 15 25 19 30 19
14 0z m-37 -40 c-3 -9 -8 -14 -10 -11 -3 3 -2 9 2 15 9 16 15 13 8 -4z m526
-190 c24 -13 25 -14 4 -15 -28 0 -84 55 -76 76 4 12 10 9 26 -15 10 -18 31
-38 46 -46z m-786 -777 c19 -19 24 -27 12 -21 -23 13 -62 53 -51 53 4 0 22
-14 39 -32z m4598 -165 c13 -16 12 -17 -3 -4 -10 7 -18 15 -18 17 0 8 8 3 21
-13z m34 -41 c-3 -3 -11 0 -18 7 -9 10 -8 11 6 5 10 -3 15 -9 12 -12z m26 -29
c13 -16 12 -17 -3 -4 -10 7 -18 15 -18 17 0 8 8 3 21 -13z"/>
</g>
</svg>
